<?xml version="1.0" encoding="UTF-8"?> <svg xmlns="http://www.w3.org/2000/svg" width="40" height="40" viewBox="0 0 40 40" fill="none"><path d="M20.0026 3.33203C29.2076 3.33203 36.6693 10.7937 36.6693 19.9987C36.6693 29.2037 29.2076 36.6654 20.0026 36.6654C17.0572 36.6704 14.1636 35.8909 11.6193 34.407L3.34263 36.6654L5.59596 28.3854C4.11089 25.8402 3.3308 22.9454 3.33596 19.9987C3.33596 10.7937 10.7976 3.33203 20.0026 3.33203ZM14.3226 12.1654L13.9893 12.1787C13.7738 12.1935 13.5632 12.2502 13.3693 12.3454C13.1886 12.4479 13.0236 12.5759 12.8793 12.7254C12.6793 12.9137 12.566 13.077 12.4443 13.2354C11.8278 14.0369 11.4959 15.0209 11.501 16.032C11.5043 16.8487 11.7176 17.6437 12.051 18.387C12.7326 19.8904 13.8543 21.482 15.3343 22.957C15.691 23.312 16.041 23.6687 16.4176 24.0004C18.2567 25.6194 20.4481 26.787 22.8176 27.4104L23.7643 27.5554C24.0726 27.572 24.381 27.5487 24.691 27.5337C25.1763 27.5081 25.6501 27.3767 26.0793 27.1487C26.2974 27.0359 26.5104 26.9136 26.7176 26.782C26.7176 26.782 26.7882 26.7343 26.926 26.632C27.151 26.4654 27.2893 26.347 27.476 26.152C27.616 26.0076 27.7326 25.8398 27.826 25.6487C27.956 25.377 28.086 24.8587 28.1393 24.427C28.1793 24.097 28.1676 23.917 28.1626 23.8054C28.156 23.627 28.0076 23.442 27.846 23.3637L26.876 22.9287C26.876 22.9287 25.426 22.297 24.5393 21.8937C24.4465 21.8533 24.3471 21.8301 24.246 21.8254C24.1319 21.8134 24.0166 21.8262 23.9079 21.8627C23.7992 21.8992 23.6997 21.9587 23.616 22.037C23.6076 22.0337 23.496 22.1287 22.291 23.5887C22.2218 23.6816 22.1265 23.7519 22.0173 23.7905C21.9081 23.829 21.7898 23.8342 21.6776 23.8054C21.569 23.7764 21.4626 23.7397 21.3593 23.6954C21.1526 23.6087 21.081 23.5754 20.9393 23.5154C19.9824 23.0985 19.0967 22.5345 18.3143 21.8437C18.1043 21.6604 17.9093 21.4604 17.7093 21.267C17.0536 20.639 16.4822 19.9287 16.0093 19.1537L15.911 18.9954C15.8414 18.8884 15.7844 18.7737 15.741 18.6537C15.6776 18.4087 15.8426 18.212 15.8426 18.212C15.8426 18.212 16.2476 17.7687 16.436 17.5287C16.6193 17.2954 16.7743 17.0687 16.8743 16.907C17.071 16.5904 17.1326 16.2654 17.0293 16.0137C16.5626 14.8737 16.0804 13.7398 15.5826 12.612C15.4843 12.3887 15.1926 12.2287 14.9276 12.197C14.8376 12.1859 14.7476 12.177 14.6576 12.1704C14.4338 12.1575 14.2094 12.1598 13.986 12.177L14.3226 12.1654Z" fill="white"></path></svg> 