<?xml version="1.0" encoding="UTF-8"?> <svg xmlns="http://www.w3.org/2000/svg" width="40" height="40" viewBox="0 0 40 40" fill="none"><path d="M19.9987 14.582C18.5621 14.582 17.1844 15.1527 16.1685 16.1685C15.1527 17.1844 14.582 18.5621 14.582 19.9987C14.582 21.4353 15.1527 22.813 16.1685 23.8289C17.1844 24.8447 18.5621 25.4154 19.9987 25.4154C21.4353 25.4154 22.813 24.8447 23.8289 23.8289C24.8447 22.813 25.4154 21.4353 25.4154 19.9987C25.4154 18.5621 24.8447 17.1844 23.8289 16.1685C22.813 15.1527 21.4353 14.582 19.9987 14.582Z" fill="white"></path><path fill-rule="evenodd" clip-rule="evenodd" d="M11.283 5.13759C17.0764 4.4958 22.923 4.4958 28.7164 5.13759C31.8814 5.49092 34.433 7.98259 34.8047 11.1593C35.4913 17.0337 35.4913 22.9681 34.8047 28.8426C34.433 32.0193 31.8814 34.5109 28.718 34.8659C22.9241 35.5078 17.077 35.5078 11.283 34.8659C8.11804 34.5109 5.56638 32.0193 5.19471 28.8443C4.50801 22.9693 4.50801 17.0343 5.19471 11.1593C5.56638 7.98259 8.11804 5.49092 11.283 5.13759ZM28.333 10.0009C27.891 10.0009 27.4671 10.1765 27.1545 10.4891C26.842 10.8016 26.6664 11.2256 26.6664 11.6676C26.6664 12.1096 26.842 12.5335 27.1545 12.8461C27.4671 13.1587 27.891 13.3343 28.333 13.3343C28.7751 13.3343 29.199 13.1587 29.5116 12.8461C29.8241 12.5335 29.9997 12.1096 29.9997 11.6676C29.9997 11.2256 29.8241 10.8016 29.5116 10.4891C29.199 10.1765 28.7751 10.0009 28.333 10.0009ZM12.083 20.0009C12.083 17.9013 12.9171 15.8877 14.4018 14.403C15.8864 12.9183 17.9001 12.0843 19.9997 12.0843C22.0993 12.0843 24.113 12.9183 25.5976 14.403C27.0823 15.8877 27.9164 17.9013 27.9164 20.0009C27.9164 22.1006 27.0823 24.1142 25.5976 25.5989C24.113 27.0835 22.0993 27.9176 19.9997 27.9176C17.9001 27.9176 15.8864 27.0835 14.4018 25.5989C12.9171 24.1142 12.083 22.1006 12.083 20.0009Z" fill="white"></path></svg> 