<?xml version="1.0" encoding="UTF-8"?> <svg xmlns="http://www.w3.org/2000/svg" width="40" height="40" viewBox="0 0 40 40" fill="none"><path d="M19.9987 3.33203C10.7987 3.33203 3.33203 10.7987 3.33203 19.9987C3.33203 29.1987 10.7987 36.6654 19.9987 36.6654C29.1987 36.6654 36.6654 29.1987 36.6654 19.9987C36.6654 10.7987 29.1987 3.33203 19.9987 3.33203ZM27.732 14.6654C27.482 17.2987 26.3987 23.6987 25.8487 26.6487C25.6154 27.8987 25.1487 28.3154 24.7154 28.3654C23.7487 28.4487 23.0154 27.732 22.082 27.1154C20.6154 26.1487 19.782 25.5487 18.3654 24.6154C16.7154 23.532 17.782 22.932 18.732 21.9654C18.982 21.7154 23.2487 17.832 23.332 17.482C23.3436 17.429 23.3421 17.374 23.3275 17.3217C23.313 17.2694 23.286 17.2215 23.2487 17.182C23.1487 17.0987 23.0154 17.132 22.8987 17.1487C22.7487 17.182 20.4154 18.732 15.8654 21.7987C15.1987 22.2487 14.5987 22.482 14.0654 22.4654C13.4654 22.4487 12.332 22.132 11.482 21.8487C10.432 21.5154 9.61536 21.332 9.68203 20.7487C9.71536 20.4487 10.132 20.1487 10.9154 19.832C15.782 17.7154 19.0154 16.3154 20.632 15.6487C25.2654 13.7154 26.2154 13.382 26.8487 13.382C26.982 13.382 27.2987 13.4154 27.4987 13.582C27.6654 13.7154 27.7154 13.8987 27.732 14.032C27.7154 14.132 27.7487 14.432 27.732 14.6654Z" fill="white"></path></svg> 