<?xml version="1.0" encoding="UTF-8"?> <svg xmlns="http://www.w3.org/2000/svg" width="141" height="133" viewBox="0 0 141 133" fill="none"><mask id="mask0_218_1491" style="mask-type:luminance" maskUnits="userSpaceOnUse" x="0" y="0" width="141" height="133"><path d="M0 0H141V133H0V0Z" fill="white"></path></mask><g mask="url(#mask0_218_1491)"><path d="M69.0731 46.8788C68.6442 47.2825 68.218 47.6888 67.796 48.0989C67.633 48.2575 67.6584 48.4306 67.8551 48.6288C68.0271 48.8024 68.2455 48.8411 68.4025 48.7008C68.7672 48.3748 69.1205 48.0374 69.4783 47.7046C69.5414 47.646 69.6017 47.5844 69.6671 47.5281C69.9306 47.3005 69.8959 46.9979 69.5852 46.8268C69.4069 46.7285 69.2197 46.7408 69.0731 46.8788ZM55.3768 40.5818C56.0146 41.5121 56.6502 42.444 57.2869 43.3751C57.5562 43.7689 57.5437 44.0174 57.2375 44.3918C57.1022 44.5571 56.9695 44.7244 56.8376 44.892C56.8053 44.9332 56.7558 44.9765 56.7738 45.0305C56.7978 45.1032 56.7962 45.1986 56.8749 45.2375C56.963 45.281 57.0043 45.1889 57.0569 45.1468C57.299 44.9531 57.5381 44.7561 57.777 44.5586C58.1368 44.2611 58.1756 44.0097 57.9202 43.636C57.2836 42.7046 56.648 41.7726 56.0096 40.8423C55.7266 40.4299 55.5053 39.9903 55.3361 39.4771C55.1285 39.8885 55.1417 40.239 55.3768 40.5818ZM83.7365 72.089C83.2346 71.6861 82.6858 71.3676 82.027 71.2469C81.7729 71.2003 81.5173 71.1891 81.2639 71.2345C81.1802 71.2495 81.0317 71.1983 81.0322 71.3597C81.0326 71.518 81.0851 71.6401 81.2787 71.6667C81.4769 71.6941 81.671 71.7387 81.8614 71.8008C82.4582 71.9956 82.9828 72.3134 83.4866 72.6604C84.337 73.246 85.1072 73.9198 85.8539 74.6182C85.8776 74.6404 85.9084 74.6557 85.936 74.6743C85.3238 73.7128 84.6413 72.8154 83.7365 72.089ZM45.3954 49.3703C45.2898 50.1152 45.4934 50.8124 45.7969 51.4867C46.386 52.7953 47.2819 53.9099 48.305 54.9383C49.5883 56.2284 51.0405 57.3177 52.7109 58.1303C53.9202 58.7185 55.186 59.1391 56.5726 59.1315C56.648 59.1311 56.7233 59.1242 56.8008 59.1066C56.3854 59.0186 55.9718 58.9304 55.5702 58.7994C54.587 58.4788 53.6882 58.0082 52.8441 57.4394C50.7081 56.0002 49.0084 54.1841 47.6554 52.073C47.1235 51.243 46.6795 50.3721 46.434 49.4229C46.315 48.9629 46.2552 48.4978 46.3603 47.9791C45.7904 48.3287 45.4788 48.7816 45.3954 49.3703ZM78.8299 60.5057C78.7421 60.6028 78.832 60.6493 78.8782 60.7006C79.4017 61.281 79.9471 61.8424 80.521 62.3792C81.3815 63.1838 82.2909 63.9347 83.2946 64.5767C84.2366 65.1794 85.2603 65.6114 86.3857 65.8103C86.4183 65.8161 86.452 65.8163 86.5015 65.8204C86.4634 65.6719 86.3779 65.564 86.296 65.455C85.7651 64.7479 85.2395 64.0374 84.7012 63.3354C83.9353 62.3365 82.9331 61.5837 81.8395 60.9305C81.3889 60.6613 80.9302 60.4045 80.4588 60.1685C80.0502 59.9639 79.6378 59.7634 79.3555 59.3206C79.2576 59.7966 79.1204 60.1841 78.8299 60.5057ZM50.5524 47.9083C50.3875 48.4175 50.4299 48.9295 50.5461 49.4386C50.822 50.6468 51.4282 51.7141 52.1528 52.727C52.9463 53.8363 53.884 54.8265 54.9926 55.6621C56.0917 56.4903 57.2859 57.1469 58.71 57.3437C58.9986 57.3836 59.2881 57.383 59.579 57.3822C59.8699 57.3816 60.0925 57.2846 60.2815 57.0746C60.5382 56.7896 60.727 56.4831 60.7607 56.0813C60.6072 56.1578 60.4765 56.238 60.3346 56.2911C59.7941 56.4931 59.2578 56.4056 58.7308 56.2405C57.9118 55.984 57.1917 55.5517 56.5154 55.0608C55.1135 54.043 53.919 52.8372 52.9464 51.4411C52.3765 50.623 51.9011 49.7626 51.6879 48.7933C51.5694 48.2549 51.553 47.7181 51.7526 47.19C51.7614 47.1666 51.7582 47.1391 51.7604 47.1134C51.2513 47.0867 50.7009 47.4499 50.5524 47.9083ZM78.7395 58.7617C78.7295 58.6667 78.6726 58.6072 78.615 58.5444C76.1631 55.8775 73.711 53.2108 71.2558 50.5465C71.1485 50.43 71.0754 50.3096 71.0331 50.1591C70.836 49.4579 70.5264 48.8068 70.0441 48.2341C69.963 48.1379 69.9184 48.1066 69.8087 48.2129C69.4815 48.5301 69.142 48.8363 68.8019 49.1414C68.7101 49.2238 68.7169 49.2837 68.7976 49.3664C68.9424 49.5149 69.0731 49.6757 69.219 49.8231C69.6272 50.2357 69.9764 50.6876 70.2448 51.1917C70.6228 51.9013 71.2017 52.4641 71.7492 53.0503C73.9121 55.3672 76.0755 57.6836 78.2388 60C78.2751 60.0388 78.3135 60.0761 78.3658 60.1289C78.6935 59.709 78.7919 59.2547 78.7395 58.7617ZM59.5661 57.9579C58.4504 57.9999 57.4098 57.7316 56.4414 57.2315C53.5254 55.7254 51.5274 53.4511 50.2667 50.5779C50.0008 49.9718 49.8475 49.3321 49.837 48.6693C49.8316 48.3277 49.8641 47.9907 49.9977 47.67C50.0464 47.5533 50.0027 47.4945 49.8985 47.4352C48.8085 46.8149 47.9979 47.0332 47.1993 47.6759C46.9896 47.8446 46.9394 48.099 46.9236 48.3532C46.8896 48.9006 47.0349 49.4181 47.2322 49.9231C47.8012 51.3802 48.6969 52.656 49.7217 53.8562C50.6399 54.9319 51.6691 55.9062 52.8439 56.7317C54.0069 57.5488 55.25 58.2263 56.7018 58.4844C57.5566 58.6364 58.3973 58.5968 59.2162 58.3008C59.3985 58.2349 59.5717 58.1577 59.6669 57.9843C59.6353 57.9505 59.6005 57.9566 59.5661 57.9579ZM62.9436 47.4585C63.4626 47.1237 63.9756 46.7803 64.4835 46.4306C64.714 46.2719 64.7766 46.0328 64.6619 45.7843C64.5234 45.4845 64.3644 45.1935 64.3755 44.8526C64.3784 44.7642 64.2857 44.7233 64.2295 44.671C62.9865 43.5129 61.9459 42.2115 61.1135 40.7625C60.9818 40.5331 60.8655 40.2994 60.78 40.0478C60.5908 39.4912 60.297 38.9777 59.9408 38.5019C59.3964 37.7746 58.3382 37.5918 57.5131 38.0661C57.2181 38.2357 56.9344 38.4233 56.6343 38.5843C56.4911 38.6612 56.5072 38.7209 56.5811 38.8317C57.5268 40.251 58.4675 41.6734 59.413 43.093C59.5217 43.2563 59.6082 43.4254 59.6346 43.616C59.6742 43.9007 59.8032 44.1432 59.9734 44.3796C60.6491 45.3183 61.3132 46.2646 61.9801 47.209C62.0499 47.3079 62.1292 47.3961 62.232 47.4667C62.4707 47.5769 62.7174 47.6046 62.9436 47.4585ZM52.5536 47.2428C52.4011 47.2593 52.3411 47.3192 52.3033 47.4448C52.1208 48.051 52.2346 48.6383 52.4395 49.2145C52.8233 50.2936 53.4743 51.2307 54.2167 52.1151C55.062 53.1217 56.0232 54.0197 57.1286 54.7703C57.7467 55.19 58.3958 55.5687 59.1462 55.7547C59.2938 55.7913 59.4428 55.8172 59.5952 55.824C60.1396 55.8488 60.4728 55.6534 60.6434 55.1728C60.7274 54.9362 60.8849 54.7853 61.1073 54.6749C61.3507 54.5541 61.6047 54.4502 61.8123 54.2719C61.8774 54.216 61.9053 54.1849 61.8357 54.104C61.274 53.4516 60.7191 52.7943 60.162 52.1384C60.1491 52.1232 60.1393 52.1001 60.1225 52.0939C59.5651 51.8891 59.2985 51.3962 58.9336 51.0072C58.0417 50.0558 57.1775 49.0812 56.2929 48.1236C56.0019 47.8085 55.8207 47.4579 55.7671 47.0439C55.7352 46.7986 55.69 46.5549 55.6458 46.2792C54.7017 46.9184 53.6416 47.1248 52.5536 47.2428ZM65.2114 45.5219C65.4513 46.0472 65.3068 46.5777 64.8182 46.9141C64.327 47.2521 63.8317 47.5852 63.3308 47.9102C62.7303 48.2999 61.9407 48.1759 61.5306 47.6077C60.7644 46.546 60.0176 45.4717 59.2625 44.403C59.1074 44.1832 59.0872 43.9238 59.0261 43.6771C59.0086 43.6068 58.9903 43.5437 58.9486 43.4809C57.9937 42.0443 57.0416 40.6063 56.0891 39.1684C56.0708 39.1407 56.0563 39.1094 56.0326 39.0867C56.0005 39.0561 56.0018 38.9765 55.9138 39.0202C55.8387 39.0574 55.8704 39.1063 55.8824 39.1529C55.9877 39.562 56.1443 39.954 56.3834 40.3093C57.0505 41.3002 57.7266 42.2856 58.4004 43.2725C58.8658 43.954 58.7837 44.5036 58.1349 45.0327C57.8737 45.2457 57.616 45.4625 57.3522 45.6725C57.0736 45.8943 56.7359 45.8958 56.4581 45.6905C56.4094 45.6546 56.3831 45.5466 56.3025 45.5985C56.2256 45.648 56.1743 45.7319 56.1949 45.837C56.2213 45.9719 56.2374 46.1085 56.2602 46.244C56.4916 47.6184 56.2982 47.2322 57.2558 48.2941C58.1729 49.3111 59.1018 50.3185 60.0244 51.3308C60.1113 51.4262 60.2014 51.5067 60.3379 51.5424C60.4763 51.5787 60.5631 51.6886 60.6502 51.791C61.1949 52.4311 61.743 53.0687 62.2814 53.7135C62.376 53.8268 62.4288 53.8353 62.5491 53.7428C64.2526 52.4324 65.8683 51.0307 67.4395 49.5823C67.5383 49.4914 67.6999 49.4063 67.7144 49.3037C67.7301 49.1929 67.5334 49.1416 67.4368 49.056C66.9771 48.6483 66.959 48.0748 67.3992 47.6537C67.6804 47.3848 67.9599 47.1142 68.2437 46.8478C68.3128 46.7827 68.3431 46.7438 68.2231 46.7031C67.1375 46.3352 66.1333 45.8098 65.0842 45.2498C65.1405 45.3701 65.1766 45.4457 65.2114 45.5219ZM64.1627 56.7958C64.3865 56.8465 64.5653 56.953 64.7202 57.1134C67.1221 59.6029 69.5278 62.0892 71.9268 64.5812C72.0713 64.7313 72.1635 64.7462 72.3468 64.6291C73.1077 64.1422 73.8573 63.641 74.5994 63.1293C74.7443 63.0295 74.738 62.9728 74.6221 62.8511C72.1212 60.2263 69.6344 57.5895 67.1232 54.9737C66.4017 54.2222 65.6107 53.5304 64.8573 52.806C64.7761 52.7281 64.7319 52.7397 64.6612 52.8015C63.8904 53.4752 63.0724 54.0954 62.2397 54.699C62.191 54.7342 62.1323 54.7655 62.1427 54.8369C62.2351 55.4708 62.4319 56.0509 63.1324 56.4461C63.4057 56.59 63.7786 56.7088 64.1627 56.7958ZM65.3528 52.4563C65.9798 53.0536 66.6127 53.6454 67.2343 54.2478C68.2364 55.219 69.1663 56.2525 70.1279 57.2587C71.7966 59.0052 73.4584 60.7576 75.117 62.5127C75.2298 62.632 75.2947 62.6262 75.4148 62.5354C76.2187 61.929 77.0115 61.3105 77.7905 60.6757C77.9207 60.5697 77.9072 60.516 77.8013 60.4028C75.3703 57.8048 72.9456 55.2017 70.5156 52.6031C70.1177 52.1774 69.8352 51.6836 69.5462 51.1946C69.2187 50.6404 68.7337 50.2082 68.32 49.7209C68.2346 49.6205 68.1974 49.6981 68.145 49.7457C67.6132 50.2295 67.0852 50.7172 66.5478 51.1954C66.1561 51.5439 65.7522 51.8801 65.3534 52.2216C65.3279 52.2435 65.3004 52.2635 65.2692 52.288C65.2166 52.376 65.3044 52.4101 65.3528 52.4563ZM44.9597 47.9157C44.2316 48.4091 43.5797 48.9704 43.0997 49.7033C42.5235 50.5832 42.3958 51.5164 42.6239 52.5071C42.896 53.6894 43.5364 54.7001 44.3131 55.6403C45.2017 56.7161 46.2493 57.6392 47.3993 58.4632C48.301 59.1092 49.2459 59.6898 50.2553 60.1737C51.9079 60.9659 53.6217 61.5736 55.4996 61.6518C56.4484 61.6912 57.3651 61.5639 58.2092 61.1167C58.8299 60.7879 59.1078 60.2911 59.0418 59.6235C59.0259 59.4616 59.0025 59.3003 58.9826 59.1401C58.9584 59.1385 58.9432 59.1329 58.9341 59.1376C57.6108 59.8196 56.2192 59.8295 54.7979 59.5019C53.6102 59.228 52.5182 58.7412 51.4846 58.1333C49.2267 56.8054 47.3468 55.1119 45.9306 52.9789C45.3603 52.1198 44.9199 51.2056 44.7852 50.1854C44.6869 49.4411 44.8087 48.7414 45.2903 48.1205C45.4374 47.9309 45.6296 47.7833 45.843 47.5879C45.4896 47.6442 45.2051 47.7495 44.9597 47.9157ZM81.7812 69.0317C80.5488 68.6108 79.4815 67.9664 78.6069 67.0344C77.5136 65.8693 76.3986 64.7222 75.2987 63.5625C75.2028 63.4615 75.1442 63.451 75.032 63.5325C74.2704 64.0853 73.4866 64.6093 72.6794 65.1013C72.5451 65.1832 72.5632 65.2318 72.6579 65.3296C74.1951 66.9157 75.7284 68.5053 77.2631 70.0936C78.1249 70.9855 79.49 71.2085 80.533 70.8208C81.5907 70.4274 82.5857 70.6518 83.5152 71.2187C84.4731 71.8031 85.1936 72.6073 85.8543 73.4662C86.3261 74.0793 86.7554 74.7191 87.1338 75.3866C87.4607 75.9633 87.8365 76.5035 88.2634 77.0201C88.9761 77.8829 89.5741 78.8123 89.9697 79.8503C90.1326 80.2777 90.0196 80.6283 89.7157 80.9455C89.5017 81.1692 89.4925 81.2172 89.6606 81.4711C89.9613 81.9257 90.4164 82.128 90.9625 82.1624C91.6316 82.2043 92.2486 82.026 92.8385 81.7405C92.9728 81.6756 92.9029 81.6038 92.8726 81.5318C92.504 80.6568 92.078 79.8072 91.6022 78.9797C89.9136 76.0433 87.7365 73.4611 85.2018 71.1395C84.7015 70.6812 84.2025 70.22 83.6469 69.8189C83.5646 69.7596 83.4786 69.7044 83.4319 69.6728C82.8862 69.3714 82.3262 69.2179 81.7812 69.0317ZM82.4229 68.6322C83.356 68.9053 84.1336 69.3936 84.8433 70.0169C86.9807 71.8944 88.9095 73.9395 90.5452 76.2254C91.6795 77.8105 92.653 79.4775 93.4146 81.2519C93.4464 81.326 93.449 81.4268 93.5891 81.3398C94.2887 80.906 94.9364 80.4265 95.3456 79.7126C95.7481 79.0104 95.5673 78.307 94.8516 77.8732C94.5073 77.6647 94.2323 77.3992 94.01 77.0763C92.5453 74.9483 91.0929 72.8123 89.489 70.773C88.7514 69.8353 87.9432 68.9523 87.1362 68.0687C86.7533 67.6495 86.5668 67.1787 86.637 66.6266C86.655 66.4846 86.6205 66.4245 86.4545 66.4013C85.242 66.2326 84.1399 65.7852 83.1237 65.1559C81.3456 64.0549 79.8525 62.6546 78.475 61.139C78.3667 61.0197 78.3111 60.9994 78.1773 61.1118C77.4037 61.7621 76.6045 62.3845 75.7871 62.9856C75.6988 63.0506 75.6587 63.0884 75.7548 63.1885C76.9226 64.4056 78.0821 65.6297 79.2507 66.8461C79.6529 67.2647 80.1354 67.5948 80.5246 67.8311C81.1983 68.2185 81.8022 68.4505 82.4229 68.6322ZM85.0435 62.8119C85.6329 63.5434 86.1764 64.3077 86.7489 65.0516C87.1228 65.5372 87.3074 66.0711 87.2428 66.6698C87.1998 67.0669 87.3282 67.3954 87.6018 67.6946C88.432 68.6027 89.2609 69.5121 90.018 70.4772C91.5156 72.3865 92.8903 74.3746 94.2494 76.3722C94.5641 76.8346 94.9246 77.231 95.4022 77.5547C96.0805 78.0142 96.3173 78.7931 96.0771 79.5461C95.9364 79.9872 95.6781 80.3624 95.3568 80.7014C94.6233 81.475 93.7094 82.0096 92.7172 82.4283C92.1618 82.6626 91.5699 82.7809 90.9557 82.7408C90.1145 82.6858 89.4534 82.3454 89.0487 81.6248C88.8415 81.2559 88.8962 80.8982 89.2158 80.6066C89.4258 80.415 89.4733 80.2243 89.3646 79.958C88.8522 78.703 88.0922 77.5841 87.1225 76.6199C85.9018 75.4061 84.6461 74.2161 83.2284 73.1977C82.5985 72.7452 81.9386 72.3409 81.1264 72.2239C80.7731 72.173 80.5425 71.9535 80.4601 71.6273C80.4234 71.4824 80.3691 71.4853 80.2397 71.5087C78.8791 71.7551 77.7218 71.3935 76.7761 70.4437C76.2184 69.8834 75.6764 69.3095 75.1275 68.7415C71.6296 65.1214 68.1291 61.5035 64.6383 57.8771C64.3371 57.5642 64.0333 57.2962 63.5727 57.2363C63.5054 57.2275 63.4409 57.198 63.3758 57.1765C62.4254 56.8625 61.8126 56.2641 61.6148 55.3161C61.6054 55.2712 61.5958 55.2263 61.5832 55.1821C61.5748 55.1524 61.5706 55.121 61.5198 55.1225C61.4035 55.126 61.2871 55.2587 61.3127 55.3689C61.5259 56.2902 61.2428 57.057 60.4982 57.6755C60.4143 57.7452 60.3708 57.8198 60.3454 57.919C60.2791 58.1787 60.1737 58.4629 59.9222 58.5676C59.5078 58.74 59.561 59.0146 59.6203 59.3224C59.6351 59.3994 59.6417 59.478 59.6492 59.5561C59.735 60.4586 59.3696 61.1447 58.5368 61.6012C57.5878 62.1217 56.5493 62.2725 55.4721 62.2277C53.4441 62.1433 51.598 61.4814 49.822 60.6112C48.7615 60.0916 47.7709 59.4691 46.8283 58.7764C45.6337 57.8987 44.5525 56.9149 43.6473 55.7669C42.8798 54.7937 42.264 53.7486 42.0075 52.5437C41.7684 51.4211 41.9382 50.3664 42.586 49.3836C43.0239 48.7193 43.6046 48.1892 44.2395 47.698C45.0327 47.0844 45.9258 46.854 46.9346 47.0099C47.0115 47.0219 47.0772 47.0219 47.1494 46.9756C48.1844 46.3123 49.2226 46.3487 50.258 46.9749C50.3567 47.0345 50.423 47.0494 50.5271 46.9684C51.094 46.5276 51.7259 46.3946 52.4274 46.6471C52.4956 46.6717 52.5634 46.6672 52.6323 46.6587C53.0588 46.6063 53.4828 46.5391 53.8963 46.4257C54.535 46.2504 55.1568 46.0268 55.588 45.5245C56.0016 45.0432 56.3643 44.5232 56.7595 44.0275C56.8659 43.8941 56.8522 43.797 56.7609 43.6651C56.1184 42.7365 55.4781 41.8063 54.8472 40.8706C54.359 40.1465 54.5222 39.2204 55.2552 38.743C55.938 38.2983 56.641 37.8763 57.3631 37.4912C58.2361 37.0257 59.3492 37.182 60.093 37.8046C60.5146 38.1574 60.7388 38.6294 61.0085 39.0759C61.233 39.4474 61.3225 39.8718 61.5239 40.2504C62.0346 41.2103 62.6644 42.0993 63.3818 42.9323C64.1216 43.7915 64.9058 44.5951 65.9988 45.0852C66.7796 45.4353 67.5287 45.8488 68.343 46.1321C68.613 46.226 68.8724 46.279 69.1829 46.2141C69.9806 46.0471 70.6649 46.8228 70.3946 47.554C70.3606 47.6461 70.3726 47.7085 70.4371 47.7806C70.9966 48.4049 71.3603 49.1257 71.595 49.907C71.636 50.0433 71.7031 50.1554 71.8005 50.2613C74.3635 53.0448 76.9304 55.8251 79.4805 58.6191C79.9295 59.1111 80.4112 59.5402 81.036 59.8204C81.2041 59.8958 81.3576 60.0005 81.5177 60.0916C83.0314 60.8823 84.2079 61.7746 85.0435 62.8119Z" fill="#E2CFBC"></path><path d="M69.0731 46.8788C68.6442 47.2825 68.218 47.6888 67.796 48.0989C67.633 48.2575 67.6584 48.4306 67.8551 48.6288C68.0271 48.8024 68.2455 48.8411 68.4025 48.7008C68.7672 48.3748 69.1205 48.0374 69.4783 47.7046C69.5414 47.646 69.6017 47.5844 69.6671 47.5281C69.9306 47.3005 69.8959 46.9979 69.5852 46.8268C69.4069 46.7285 69.2197 46.7408 69.0731 46.8788ZM55.3768 40.5818C56.0146 41.5121 56.6502 42.444 57.2869 43.3751C57.5562 43.7689 57.5437 44.0174 57.2375 44.3918C57.1022 44.5571 56.9695 44.7244 56.8376 44.892C56.8053 44.9332 56.7558 44.9765 56.7738 45.0305C56.7978 45.1032 56.7962 45.1986 56.8749 45.2375C56.963 45.281 57.0043 45.1889 57.0569 45.1468C57.299 44.9531 57.5381 44.7561 57.777 44.5586C58.1368 44.2611 58.1756 44.0097 57.9202 43.636C57.2836 42.7046 56.648 41.7726 56.0096 40.8423C55.7266 40.4299 55.5053 39.9903 55.3361 39.4771C55.1285 39.8885 55.1417 40.239 55.3768 40.5818ZM83.7365 72.089C83.2346 71.6861 82.6858 71.3676 82.027 71.2469C81.7729 71.2003 81.5173 71.1891 81.2639 71.2345C81.1802 71.2495 81.0317 71.1983 81.0322 71.3597C81.0326 71.518 81.0851 71.6401 81.2787 71.6667C81.4769 71.6941 81.671 71.7387 81.8614 71.8008C82.4582 71.9956 82.9828 72.3134 83.4866 72.6604C84.337 73.246 85.1072 73.9198 85.8539 74.6182C85.8776 74.6404 85.9084 74.6557 85.936 74.6743C85.3238 73.7128 84.6413 72.8154 83.7365 72.089ZM45.3954 49.3703C45.2898 50.1152 45.4934 50.8124 45.7969 51.4867C46.386 52.7953 47.2819 53.9099 48.305 54.9383C49.5883 56.2284 51.0405 57.3177 52.7109 58.1303C53.9202 58.7185 55.186 59.1391 56.5726 59.1315C56.648 59.1311 56.7233 59.1242 56.8008 59.1066C56.3854 59.0186 55.9718 58.9304 55.5702 58.7994C54.587 58.4788 53.6882 58.0082 52.8441 57.4394C50.7081 56.0002 49.0084 54.1841 47.6554 52.073C47.1235 51.243 46.6795 50.3721 46.434 49.4229C46.315 48.9629 46.2552 48.4978 46.3603 47.9791C45.7904 48.3287 45.4788 48.7816 45.3954 49.3703ZM78.8299 60.5057C78.7421 60.6028 78.832 60.6493 78.8782 60.7006C79.4017 61.281 79.9471 61.8424 80.521 62.3792C81.3815 63.1838 82.2909 63.9347 83.2946 64.5767C84.2366 65.1794 85.2603 65.6114 86.3857 65.8103C86.4183 65.8161 86.452 65.8163 86.5015 65.8204C86.4634 65.6719 86.3779 65.564 86.296 65.455C85.7651 64.7479 85.2395 64.0374 84.7012 63.3354C83.9353 62.3365 82.9331 61.5837 81.8395 60.9305C81.3889 60.6613 80.9302 60.4045 80.4588 60.1685C80.0502 59.9639 79.6378 59.7634 79.3555 59.3206C79.2576 59.7966 79.1204 60.1841 78.8299 60.5057ZM50.5524 47.9083C50.3875 48.4175 50.4299 48.9295 50.5461 49.4386C50.822 50.6468 51.4282 51.7141 52.1528 52.727C52.9463 53.8363 53.884 54.8265 54.9926 55.6621C56.0917 56.4903 57.2859 57.1469 58.71 57.3437C58.9986 57.3836 59.2881 57.383 59.579 57.3822C59.8699 57.3816 60.0925 57.2846 60.2815 57.0746C60.5382 56.7896 60.727 56.4831 60.7607 56.0813C60.6072 56.1578 60.4765 56.238 60.3346 56.2911C59.7941 56.4931 59.2578 56.4056 58.7308 56.2405C57.9118 55.984 57.1917 55.5517 56.5154 55.0608C55.1135 54.043 53.919 52.8372 52.9464 51.4411C52.3765 50.623 51.9011 49.7626 51.6879 48.7933C51.5694 48.2549 51.553 47.7181 51.7526 47.19C51.7614 47.1666 51.7582 47.1391 51.7604 47.1134C51.2513 47.0867 50.7009 47.4499 50.5524 47.9083ZM78.7395 58.7617C78.7295 58.6667 78.6726 58.6072 78.615 58.5444C76.1631 55.8775 73.711 53.2108 71.2558 50.5465C71.1485 50.43 71.0754 50.3096 71.0331 50.1591C70.836 49.4579 70.5264 48.8068 70.0441 48.2341C69.963 48.1379 69.9184 48.1066 69.8087 48.2129C69.4815 48.5301 69.142 48.8363 68.8019 49.1414C68.7101 49.2238 68.7169 49.2837 68.7976 49.3664C68.9424 49.5149 69.0731 49.6757 69.219 49.8231C69.6272 50.2357 69.9764 50.6876 70.2448 51.1917C70.6228 51.9013 71.2017 52.4641 71.7492 53.0503C73.9121 55.3672 76.0755 57.6836 78.2388 60C78.2751 60.0388 78.3135 60.0761 78.3658 60.1289C78.6935 59.709 78.7919 59.2547 78.7395 58.7617ZM59.5661 57.9579C58.4504 57.9999 57.4098 57.7316 56.4414 57.2315C53.5254 55.7254 51.5274 53.4511 50.2667 50.5779C50.0008 49.9718 49.8475 49.3321 49.837 48.6693C49.8316 48.3277 49.8641 47.9907 49.9977 47.67C50.0464 47.5533 50.0027 47.4945 49.8985 47.4352C48.8085 46.8149 47.9979 47.0332 47.1993 47.6759C46.9896 47.8446 46.9394 48.099 46.9236 48.3532C46.8896 48.9006 47.0349 49.4181 47.2322 49.9231C47.8012 51.3802 48.6969 52.656 49.7217 53.8562C50.6399 54.9319 51.6691 55.9062 52.8439 56.7317C54.0069 57.5488 55.25 58.2263 56.7018 58.4844C57.5566 58.6364 58.3973 58.5968 59.2162 58.3008C59.3985 58.2349 59.5717 58.1577 59.6669 57.9843C59.6353 57.9505 59.6005 57.9566 59.5661 57.9579ZM62.9436 47.4585C63.4626 47.1237 63.9756 46.7803 64.4835 46.4306C64.714 46.2719 64.7766 46.0328 64.6619 45.7843C64.5234 45.4845 64.3644 45.1935 64.3755 44.8526C64.3784 44.7642 64.2857 44.7233 64.2295 44.671C62.9865 43.5129 61.9459 42.2115 61.1135 40.7625C60.9818 40.5331 60.8655 40.2994 60.78 40.0478C60.5908 39.4912 60.297 38.9777 59.9408 38.5019C59.3964 37.7746 58.3382 37.5918 57.5131 38.0661C57.2181 38.2357 56.9344 38.4233 56.6343 38.5843C56.4911 38.6612 56.5072 38.7209 56.5811 38.8317C57.5268 40.251 58.4675 41.6734 59.413 43.093C59.5217 43.2563 59.6082 43.4254 59.6346 43.616C59.6742 43.9007 59.8032 44.1432 59.9734 44.3796C60.6491 45.3183 61.3132 46.2646 61.9801 47.209C62.0499 47.3079 62.1292 47.3961 62.232 47.4667C62.4707 47.5769 62.7174 47.6046 62.9436 47.4585ZM52.5536 47.2428C52.4011 47.2593 52.3411 47.3192 52.3033 47.4448C52.1208 48.051 52.2346 48.6383 52.4395 49.2145C52.8233 50.2936 53.4743 51.2307 54.2167 52.1151C55.062 53.1217 56.0232 54.0197 57.1286 54.7703C57.7467 55.19 58.3958 55.5687 59.1462 55.7547C59.2938 55.7913 59.4428 55.8172 59.5952 55.824C60.1396 55.8488 60.4728 55.6534 60.6434 55.1728C60.7274 54.9362 60.8849 54.7853 61.1073 54.6749C61.3507 54.5541 61.6047 54.4502 61.8123 54.2719C61.8774 54.216 61.9053 54.1849 61.8357 54.104C61.274 53.4516 60.7191 52.7943 60.162 52.1384C60.1491 52.1232 60.1393 52.1001 60.1225 52.0939C59.5651 51.8891 59.2985 51.3962 58.9336 51.0072C58.0417 50.0558 57.1775 49.0812 56.2929 48.1236C56.0019 47.8085 55.8207 47.4579 55.7671 47.0439C55.7352 46.7986 55.69 46.5549 55.6458 46.2792C54.7017 46.9184 53.6416 47.1248 52.5536 47.2428ZM65.2114 45.5219C65.4513 46.0472 65.3068 46.5777 64.8182 46.9141C64.327 47.2521 63.8317 47.5852 63.3308 47.9102C62.7303 48.2999 61.9407 48.1759 61.5306 47.6077C60.7644 46.546 60.0176 45.4717 59.2625 44.403C59.1074 44.1832 59.0872 43.9238 59.0261 43.6771C59.0086 43.6068 58.9903 43.5437 58.9486 43.4809C57.9937 42.0443 57.0416 40.6063 56.0891 39.1684C56.0708 39.1407 56.0563 39.1094 56.0326 39.0867C56.0005 39.0561 56.0018 38.9765 55.9138 39.0202C55.8387 39.0574 55.8704 39.1063 55.8824 39.1529C55.9877 39.562 56.1443 39.954 56.3834 40.3093C57.0505 41.3002 57.7266 42.2856 58.4004 43.2725C58.8658 43.954 58.7837 44.5036 58.1349 45.0327C57.8737 45.2457 57.616 45.4625 57.3522 45.6725C57.0736 45.8943 56.7359 45.8958 56.4581 45.6905C56.4094 45.6546 56.3831 45.5466 56.3025 45.5985C56.2256 45.648 56.1743 45.7319 56.1949 45.837C56.2213 45.9719 56.2374 46.1085 56.2602 46.244C56.4916 47.6184 56.2982 47.2322 57.2558 48.2941C58.1729 49.3111 59.1018 50.3185 60.0244 51.3308C60.1113 51.4262 60.2014 51.5067 60.3379 51.5424C60.4763 51.5787 60.5631 51.6886 60.6502 51.791C61.1949 52.4311 61.743 53.0687 62.2814 53.7135C62.376 53.8268 62.4288 53.8353 62.5491 53.7428C64.2526 52.4324 65.8683 51.0307 67.4395 49.5823C67.5383 49.4914 67.6999 49.4063 67.7144 49.3037C67.7301 49.1929 67.5334 49.1416 67.4368 49.056C66.9771 48.6483 66.959 48.0748 67.3992 47.6537C67.6804 47.3848 67.9599 47.1142 68.2437 46.8478C68.3128 46.7827 68.3431 46.7438 68.2231 46.7031C67.1375 46.3352 66.1333 45.8098 65.0842 45.2498C65.1405 45.3701 65.1766 45.4457 65.2114 45.5219ZM64.1627 56.7958C64.3865 56.8465 64.5653 56.953 64.7202 57.1134C67.1221 59.6029 69.5278 62.0892 71.9268 64.5812C72.0713 64.7313 72.1635 64.7462 72.3468 64.6291C73.1077 64.1422 73.8573 63.641 74.5994 63.1293C74.7443 63.0295 74.738 62.9728 74.6221 62.8511C72.1212 60.2263 69.6344 57.5895 67.1232 54.9737C66.4017 54.2222 65.6107 53.5304 64.8573 52.806C64.7761 52.7281 64.7319 52.7397 64.6612 52.8015C63.8904 53.4752 63.0724 54.0954 62.2397 54.699C62.191 54.7342 62.1323 54.7655 62.1427 54.8369C62.2351 55.4708 62.4319 56.0509 63.1324 56.4461C63.4057 56.59 63.7786 56.7088 64.1627 56.7958ZM65.3528 52.4563C65.9798 53.0536 66.6127 53.6454 67.2343 54.2478C68.2364 55.219 69.1663 56.2525 70.1279 57.2587C71.7966 59.0052 73.4584 60.7576 75.117 62.5127C75.2298 62.632 75.2947 62.6262 75.4148 62.5354C76.2187 61.929 77.0115 61.3105 77.7905 60.6757C77.9207 60.5697 77.9072 60.516 77.8013 60.4028C75.3703 57.8048 72.9456 55.2017 70.5156 52.6031C70.1177 52.1774 69.8352 51.6836 69.5463 51.1946C69.2187 50.6404 68.7337 50.2082 68.32 49.7209C68.2346 49.6205 68.1974 49.6981 68.145 49.7457C67.6132 50.2295 67.0852 50.7172 66.5478 51.1954C66.1561 51.5439 65.7522 51.8801 65.3534 52.2216C65.3279 52.2435 65.3004 52.2635 65.2692 52.288C65.2166 52.376 65.3044 52.4101 65.3528 52.4563ZM44.9597 47.9157C44.2316 48.4091 43.5797 48.9704 43.0997 49.7033C42.5235 50.5832 42.3958 51.5164 42.6239 52.5071C42.896 53.6894 43.5364 54.7001 44.3131 55.6403C45.2017 56.7161 46.2493 57.6392 47.3993 58.4632C48.301 59.1092 49.2459 59.6898 50.2553 60.1737C51.9079 60.9659 53.6217 61.5736 55.4996 61.6518C56.4484 61.6912 57.3651 61.5639 58.2092 61.1167C58.8299 60.7879 59.1078 60.2911 59.0418 59.6235C59.0259 59.4616 59.0025 59.3003 58.9826 59.1401C58.9584 59.1385 58.9432 59.1329 58.9341 59.1376C57.6108 59.8196 56.2192 59.8295 54.7979 59.5019C53.6102 59.228 52.5182 58.7412 51.4846 58.1333C49.2267 56.8054 47.3468 55.1119 45.9306 52.9789C45.3603 52.1198 44.9199 51.2056 44.7852 50.1854C44.6869 49.4411 44.8087 48.7414 45.2903 48.1205C45.4374 47.9309 45.6296 47.7833 45.843 47.5879C45.4896 47.6442 45.2051 47.7495 44.9597 47.9157ZM81.7812 69.0317C80.5488 68.6108 79.4815 67.9664 78.6069 67.0344C77.5136 65.8693 76.3986 64.7222 75.2987 63.5625C75.2028 63.4615 75.1442 63.451 75.032 63.5325C74.2704 64.0853 73.4866 64.6093 72.6794 65.1013C72.5451 65.1832 72.5632 65.2318 72.6579 65.3296C74.1951 66.9157 75.7284 68.5053 77.2631 70.0936C78.1249 70.9855 79.49 71.2085 80.533 70.8208C81.5907 70.4274 82.5857 70.6518 83.5152 71.2187C84.4731 71.8031 85.1936 72.6073 85.8543 73.4662C86.3261 74.0793 86.7554 74.7191 87.1338 75.3866C87.4607 75.9633 87.8365 76.5035 88.2634 77.0201C88.9761 77.8829 89.5741 78.8123 89.9697 79.8503C90.1326 80.2777 90.0196 80.6283 89.7157 80.9455C89.5017 81.1692 89.4925 81.2172 89.6606 81.4711C89.9613 81.9257 90.4164 82.128 90.9625 82.1624C91.6316 82.2043 92.2486 82.026 92.8385 81.7405C92.9728 81.6756 92.9029 81.6038 92.8726 81.5318C92.504 80.6568 92.078 79.8072 91.6022 78.9797C89.9136 76.0433 87.7365 73.4611 85.2018 71.1395C84.7015 70.6812 84.2025 70.22 83.6469 69.8189C83.5646 69.7596 83.4786 69.7044 83.4319 69.6728C82.8862 69.3714 82.3262 69.2179 81.7812 69.0317ZM82.4229 68.6322C83.356 68.9053 84.1336 69.3936 84.8433 70.0169C86.9807 71.8944 88.9095 73.9395 90.5452 76.2254C91.6795 77.8105 92.653 79.4775 93.4146 81.2519C93.4464 81.326 93.449 81.4268 93.5891 81.3398C94.2887 80.906 94.9364 80.4265 95.3456 79.7126C95.7481 79.0104 95.5673 78.307 94.8516 77.8732C94.5073 77.6647 94.2323 77.3992 94.01 77.0763C92.5453 74.9483 91.0929 72.8123 89.489 70.773C88.7514 69.8353 87.9432 68.9523 87.1362 68.0687C86.7533 67.6495 86.5668 67.1787 86.637 66.6266C86.655 66.4846 86.6205 66.4245 86.4545 66.4013C85.2419 66.2326 84.1399 65.7852 83.1237 65.1559C81.3456 64.0549 79.8525 62.6546 78.475 61.139C78.3667 61.0197 78.3111 60.9994 78.1773 61.1118C77.4037 61.7621 76.6045 62.3845 75.7871 62.9856C75.6988 63.0506 75.6587 63.0884 75.7548 63.1885C76.9226 64.4056 78.0821 65.6297 79.2507 66.8461C79.6529 67.2647 80.1354 67.5948 80.5246 67.8311C81.1983 68.2185 81.8022 68.4505 82.4229 68.6322ZM85.0435 62.8119C85.6329 63.5434 86.1764 64.3077 86.7489 65.0516C87.1228 65.5372 87.3074 66.0711 87.2428 66.6698C87.1998 67.0669 87.3282 67.3954 87.6018 67.6946C88.432 68.6027 89.2609 69.5121 90.018 70.4772C91.5156 72.3865 92.8903 74.3746 94.2494 76.3722C94.5641 76.8346 94.9246 77.231 95.4022 77.5547C96.0805 78.0142 96.3173 78.7931 96.0771 79.5461C95.9364 79.9872 95.6781 80.3624 95.3568 80.7014C94.6233 81.475 93.7094 82.0096 92.7172 82.4283C92.1618 82.6626 91.5699 82.7809 90.9557 82.7408C90.1145 82.6858 89.4534 82.3454 89.0487 81.6248C88.8415 81.2559 88.8962 80.8982 89.2158 80.6066C89.4258 80.415 89.4733 80.2243 89.3646 79.958C88.8522 78.703 88.0922 77.5841 87.1225 76.6199C85.9018 75.4061 84.6461 74.2161 83.2284 73.1977C82.5985 72.7452 81.9386 72.3409 81.1264 72.2239C80.7731 72.173 80.5425 71.9535 80.4601 71.6273C80.4234 71.4824 80.3691 71.4853 80.2397 71.5087C78.8791 71.7551 77.7218 71.3935 76.7761 70.4437C76.2184 69.8834 75.6764 69.3095 75.1275 68.7415C71.6296 65.1214 68.1291 61.5035 64.6383 57.8771C64.3371 57.5642 64.0333 57.2962 63.5727 57.2363C63.5054 57.2275 63.4409 57.198 63.3758 57.1765C62.4254 56.8625 61.8126 56.2641 61.6148 55.3161C61.6054 55.2712 61.5958 55.2263 61.5832 55.1821C61.5748 55.1524 61.5706 55.121 61.5198 55.1225C61.4035 55.126 61.2871 55.2587 61.3127 55.3689C61.5259 56.2902 61.2428 57.057 60.4982 57.6755C60.4143 57.7452 60.3708 57.8198 60.3454 57.919C60.2791 58.1787 60.1737 58.4629 59.9222 58.5676C59.5078 58.74 59.561 59.0146 59.6203 59.3224C59.6351 59.3994 59.6417 59.478 59.6492 59.5561C59.735 60.4586 59.3696 61.1447 58.5368 61.6012C57.5878 62.1217 56.5493 62.2725 55.4721 62.2277C53.4441 62.1433 51.598 61.4814 49.822 60.6112C48.7615 60.0916 47.7709 59.4691 46.8283 58.7764C45.6337 57.8987 44.5525 56.9149 43.6473 55.7669C42.8798 54.7937 42.264 53.7486 42.0075 52.5437C41.7684 51.4211 41.9382 50.3664 42.586 49.3836C43.0239 48.7193 43.6046 48.1892 44.2395 47.698C45.0327 47.0844 45.9258 46.8541 46.9346 47.0099C47.0115 47.0219 47.0772 47.0219 47.1494 46.9756C48.1844 46.3123 49.2226 46.3487 50.258 46.975C50.3567 47.0345 50.423 47.0494 50.5271 46.9684C51.094 46.5276 51.7259 46.3946 52.4274 46.6471C52.4956 46.6717 52.5634 46.6672 52.6323 46.6587C53.0588 46.6063 53.4828 46.5391 53.8963 46.4257C54.535 46.2504 55.1568 46.0268 55.588 45.5245C56.0016 45.0432 56.3643 44.5232 56.7595 44.0275C56.8659 43.8941 56.8522 43.797 56.7609 43.6651C56.1184 42.7364 55.4781 41.8063 54.8472 40.8706C54.359 40.1465 54.5222 39.2204 55.2552 38.743C55.938 38.2983 56.641 37.8763 57.3631 37.4912C58.2361 37.0257 59.3492 37.182 60.093 37.8046C60.5146 38.1574 60.7388 38.6294 61.0085 39.0759C61.233 39.4474 61.3225 39.8718 61.5239 40.2504C62.0346 41.2103 62.6644 42.0993 63.3818 42.9323C64.1216 43.7915 64.9058 44.5951 65.9988 45.0852C66.7796 45.4353 67.5287 45.8488 68.343 46.1321C68.613 46.226 68.8724 46.279 69.1829 46.2141C69.9806 46.0471 70.6649 46.8228 70.3946 47.5539C70.3606 47.6461 70.3726 47.7085 70.4371 47.7806C70.9966 48.4049 71.3603 49.1257 71.595 49.907C71.636 50.0433 71.7031 50.1554 71.8005 50.2613C74.3635 53.0448 76.9304 55.8251 79.4805 58.6191C79.9295 59.1111 80.4112 59.5402 81.036 59.8204C81.2041 59.8958 81.3576 60.0005 81.5177 60.0916C83.0314 60.8823 84.2079 61.7746 85.0435 62.8119Z" stroke="#E2CFBC" stroke-miterlimit="10"></path><path d="M57.7173 46.8609C58.2007 47.3881 58.6893 47.911 59.1758 48.4358C59.4395 48.7202 59.7051 49.0031 59.9625 49.2926C60.0491 49.39 60.1083 49.4008 60.2039 49.3026C60.3063 49.1977 60.4238 49.1045 60.5432 49.0163C60.6351 48.9482 60.6377 48.8929 60.5626 48.8112C59.7936 47.9745 59.0269 47.1358 58.2601 46.2972C58.2198 46.253 58.1863 46.1853 58.1148 46.2498C57.9549 46.3939 57.8 46.5427 57.6265 46.7052C57.5778 46.7795 57.6767 46.8166 57.7173 46.8609ZM59.5651 49.7332C59.278 49.425 58.9934 49.1148 58.707 48.806C58.1932 48.2522 57.6776 47.6998 57.1651 47.1449C56.9434 46.9047 56.9101 46.5948 57.1033 46.3949C57.3217 46.1691 57.5519 45.9515 57.7949 45.7494C58.0414 45.5445 58.4001 45.5684 58.6149 45.8041C59.4515 46.7223 60.3124 47.6212 61.1156 48.5663C61.3351 48.8246 61.3235 49.1043 61.0748 49.334C60.873 49.5203 60.6591 49.6958 60.4421 49.8665C60.2503 50.0173 59.9696 50.0271 59.7247 49.8865C59.6904 49.8538 59.6241 49.7965 59.5651 49.7332Z" fill="#E2CFBC"></path><path d="M57.7173 46.8609C58.2007 47.3881 58.6893 47.911 59.1758 48.4358C59.4395 48.7202 59.7051 49.0031 59.9625 49.2926C60.0491 49.39 60.1083 49.4008 60.2039 49.3026C60.3063 49.1977 60.4238 49.1045 60.5432 49.0163C60.6351 48.9482 60.6377 48.8929 60.5626 48.8112C59.7936 47.9745 59.0269 47.1358 58.2601 46.2972C58.2198 46.253 58.1863 46.1853 58.1148 46.2498C57.9549 46.3939 57.8 46.5427 57.6265 46.7052C57.5778 46.7795 57.6767 46.8166 57.7173 46.8609ZM59.5651 49.7332C59.278 49.425 58.9934 49.1148 58.707 48.806C58.1932 48.2522 57.6776 47.6998 57.1651 47.1449C56.9434 46.9047 56.9101 46.5948 57.1033 46.3949C57.3217 46.1691 57.5519 45.9515 57.7949 45.7494C58.0414 45.5445 58.4001 45.5684 58.6149 45.8041C59.4515 46.7223 60.3124 47.6212 61.1156 48.5663C61.3351 48.8246 61.3235 49.1043 61.0748 49.334C60.873 49.5203 60.6591 49.6958 60.4421 49.8665C60.2503 50.0173 59.9696 50.0271 59.7247 49.8865C59.6904 49.8538 59.6241 49.7965 59.5651 49.7332Z" stroke="#E2CFBC" stroke-width="6.66667" stroke-miterlimit="10"></path><path d="M62.9695 50.5917C62.6258 50.4046 62.1695 50.5197 61.9748 50.8429C61.7774 51.1701 61.8979 51.5945 62.2413 51.7818C62.5868 51.9702 63.0261 51.8574 63.232 51.5274C63.4348 51.2024 63.3165 50.7807 62.9695 50.5917ZM63.2925 50.0966C63.923 50.4464 64.1353 51.2476 63.755 51.8414C63.3786 52.4288 62.55 52.6255 61.92 52.2769C61.2816 51.9236 61.0828 51.1509 61.4734 50.541C61.8599 49.9376 62.6556 49.7432 63.2925 50.0966Z" fill="#E2CFBC"></path><path d="M62.9695 50.5917C62.6258 50.4046 62.1695 50.5197 61.9748 50.8429C61.7774 51.1701 61.8979 51.5945 62.2413 51.7818C62.5868 51.9702 63.0261 51.8574 63.232 51.5274C63.4348 51.2024 63.3165 50.7807 62.9695 50.5917ZM63.2925 50.0966C63.923 50.4464 64.1353 51.2476 63.755 51.8414C63.3786 52.4288 62.55 52.6255 61.92 52.2769C61.2816 51.9236 61.0828 51.1509 61.4734 50.541C61.8599 49.9376 62.6556 49.7432 63.2925 50.0966Z" stroke="#E2CFBC" stroke-width="6.66667" stroke-miterlimit="10"></path><path d="M58.4464 52.1369C57.6672 51.2927 56.8887 50.4478 56.1121 49.6013C56.0556 49.5398 56.0226 49.5182 55.9536 49.5923C55.7897 49.7681 55.5153 49.9166 55.4739 50.1116C55.4331 50.3041 55.7326 50.4609 55.8864 50.6284C56.5189 51.3171 57.1652 51.9945 57.7996 52.6816C57.897 52.7872 57.9562 52.7834 58.0498 52.6877C58.1852 52.549 58.3316 52.4197 58.4732 52.2863C58.535 52.2245 58.49 52.1843 58.4464 52.1369ZM58.232 53.2949C58.0071 53.4536 57.6838 53.4107 57.496 53.2121C56.6463 52.3139 55.7993 51.4133 54.958 50.5081C54.7475 50.2818 54.7639 49.9701 54.9791 49.7403C55.18 49.5257 55.3842 49.3132 55.5965 49.1087C55.85 48.8648 56.2343 48.875 56.4805 49.1247C56.5837 49.2295 56.6804 49.34 56.78 49.448C57.4952 50.224 58.2106 50.9997 58.9254 51.7761C59.1702 52.0419 59.2051 52.2854 59.0038 52.5949C58.7867 52.8096 58.5358 53.0806 58.232 53.2949Z" fill="#E2CFBC"></path><path d="M58.4464 52.1369C57.6672 51.2927 56.8887 50.4478 56.1121 49.6013C56.0556 49.5398 56.0226 49.5182 55.9536 49.5923C55.7897 49.7681 55.5153 49.9166 55.4739 50.1116C55.4331 50.3041 55.7326 50.4609 55.8864 50.6284C56.5189 51.3171 57.1652 51.9945 57.7996 52.6816C57.897 52.7872 57.9562 52.7834 58.0498 52.6877C58.1852 52.549 58.3316 52.4197 58.4732 52.2863C58.535 52.2245 58.49 52.1843 58.4464 52.1369ZM58.232 53.2949C58.0071 53.4536 57.6838 53.4107 57.496 53.2121C56.6463 52.3139 55.7993 51.4133 54.958 50.5081C54.7475 50.2818 54.7639 49.9701 54.9791 49.7403C55.18 49.5257 55.3842 49.3132 55.5965 49.1087C55.85 48.8648 56.2343 48.875 56.4805 49.1247C56.5837 49.2295 56.6804 49.34 56.78 49.448C57.4952 50.224 58.2106 50.9997 58.9254 51.7761C59.1702 52.0419 59.2051 52.2854 59.0038 52.5949C58.7867 52.8096 58.5358 53.0806 58.232 53.2949Z" stroke="#E2CFBC" stroke-width="6.66667" stroke-miterlimit="10"></path><path d="M92.7144 81.9475C92.7403 82.1852 92.7502 82.4237 92.7406 82.6625C92.7361 82.7762 92.7274 82.8897 92.7146 83.0028C92.7108 83.0375 92.7066 83.0723 92.7017 83.1068C92.7033 83.0962 92.7132 83.0318 92.7026 83.0947C92.6926 83.1549 92.6819 83.2151 92.67 83.2751C92.6218 83.5147 92.5559 83.7513 92.4739 83.9826C92.4356 84.0904 92.3932 84.1966 92.349 84.3023C92.3251 84.3595 92.348 84.3066 92.3526 84.2963C92.3417 84.3205 92.3304 84.3445 92.3191 84.3685C92.2889 84.4326 92.2574 84.4963 92.2248 84.5594C92.1141 84.7734 91.9901 84.9813 91.8543 85.182C91.7885 85.2791 91.7199 85.3747 91.6488 85.4685C91.6104 85.5191 91.5713 85.5693 91.5313 85.6189C91.5767 85.5626 91.4778 85.6816 91.4618 85.7001C91.1297 86.0837 90.7538 86.4265 90.3477 86.7396C90.2748 86.7958 90.3565 86.7356 90.281 86.7888C90.2274 86.8266 90.1736 86.864 90.1192 86.9006C90.0101 86.9737 89.8991 87.0442 89.7862 87.1118C89.5686 87.2419 89.3439 87.3617 89.1132 87.4699C89.0023 87.5218 88.89 87.5711 88.7764 87.6175C88.7165 87.642 88.7684 87.6207 88.7799 87.6162C88.7448 87.6299 88.7095 87.6432 88.6742 87.6563C88.6122 87.6791 88.5499 87.7012 88.4873 87.7223C88.2349 87.8078 87.9774 87.8785 87.7164 87.9369C86.6408 88.1778 85.4193 88.187 84.3448 88.0115C81.9777 87.6249 79.8585 86.5099 78.0511 85.0512C76.1404 83.5089 74.5531 81.6543 72.9863 79.8097C71.4159 77.961 69.8394 76.0933 67.9443 74.5264C66.0708 72.9776 63.8655 71.7205 61.4099 71.2146C59.1555 70.7503 56.5099 70.8879 54.6164 72.2584C53.6632 72.9484 52.9929 73.9278 52.8151 75.0591C52.6332 76.2166 52.8588 77.3869 53.3056 78.4705C54.1775 80.5851 55.93 82.3415 56.6829 84.4544C56.7741 84.7104 56.8528 84.9715 56.9098 85.2363C56.9214 85.2901 56.9313 85.3443 56.9413 85.3984C56.9456 85.4217 56.9491 85.4451 56.9531 85.4685C56.9494 85.4475 56.941 85.3626 56.9527 85.4677C56.9652 85.5785 56.9761 85.6892 56.9818 85.8005C56.9927 86.0166 56.9884 86.2334 56.9696 86.449C56.9653 86.497 56.9601 86.5449 56.9548 86.5929C56.9531 86.6085 56.9393 86.7091 56.9491 86.6416C56.958 86.5793 56.9461 86.6587 56.9447 86.6661C56.9245 86.7767 56.9045 86.887 56.8784 86.9966C56.8286 87.2057 56.7643 87.4117 56.6851 87.6125C56.6647 87.664 56.6437 87.7154 56.6211 87.7659C56.6588 87.6817 56.6132 87.7795 56.5981 87.8099C56.5495 87.9079 56.497 88.0042 56.4404 88.0982C56.3844 88.1911 56.3245 88.2818 56.2605 88.3699C56.2332 88.4072 56.2049 88.4437 56.1766 88.4804C56.2436 88.3935 56.1364 88.5264 56.1164 88.5485C56.0498 88.622 55.9798 88.6928 55.9066 88.7602C55.8729 88.7912 55.8385 88.8214 55.8035 88.851C55.786 88.8657 55.7684 88.8803 55.7505 88.8946C55.751 88.8944 55.6391 88.98 55.6986 88.9363C55.7464 88.9012 55.6415 88.9747 55.6239 88.9862C55.579 89.0154 55.5334 89.0435 55.4868 89.0704C55.3998 89.1205 55.3097 89.1649 55.2179 89.2068C55.1967 89.2165 55.1751 89.2255 55.1535 89.2345C55.1604 89.2316 55.2398 89.2027 55.1787 89.2235C55.1262 89.2414 55.0741 89.2602 55.0208 89.2763C54.9121 89.309 54.8014 89.3345 54.6896 89.3554C54.39 89.4114 54.2183 89.748 54.2949 90.0111C54.3808 90.3057 54.6897 90.4397 54.9901 90.3834C57.0214 90.0029 58.0588 87.9822 58.1155 86.1845C58.1869 83.9226 56.6653 81.9739 55.4739 80.1341C54.8391 79.1537 54.3074 78.2025 54.031 77.0894C53.9002 76.5632 53.8435 76.0919 53.8875 75.5231C53.922 75.0796 54.0705 74.5682 54.3132 74.1568C54.3812 74.0416 54.4559 73.9297 54.5369 73.8222C54.5482 73.8071 54.6326 73.7032 54.5902 73.7531C54.639 73.6955 54.69 73.6393 54.7423 73.5846C54.8276 73.4957 54.9171 73.4105 55.0103 73.3291C55.0606 73.2852 55.1118 73.2423 55.1643 73.2006C55.1866 73.1827 55.2096 73.1653 55.2322 73.1476C55.3072 73.0892 55.1795 73.1841 55.257 73.1283C55.4771 72.9701 55.7143 72.8321 55.9587 72.7101C56.2205 72.5795 56.3657 72.5199 56.6196 72.4338C57.1223 72.2633 57.7088 72.1382 58.1809 72.0894C58.7812 72.0275 59.388 72.0251 59.9893 72.0762C61.0812 72.1691 62.3229 72.5029 63.34 72.9338C64.429 73.3953 65.4795 74.0051 66.4002 74.6938C68.4022 76.1913 70.0482 78.0535 71.6424 79.923C73.2233 81.7769 74.7785 83.6678 76.6359 85.2877C78.4885 86.9034 80.6494 88.2344 83.1097 88.8467C85.4133 89.4202 87.9605 89.3332 90.0622 88.1997C91.9028 87.2071 93.4201 85.4592 93.7794 83.4556C93.869 82.9553 93.8997 82.4526 93.8446 81.9475C93.8134 81.6611 93.6071 81.4144 93.2795 81.4144C92.9981 81.4144 92.683 81.6593 92.7144 81.9475Z" fill="#E2CFBC"></path><path d="M38.1133 43.3105L31.6618 38.3392L29.7935 40.4964L29.248 40.076L33.4815 35.1879L34.027 35.6082L32.1587 37.7653L38.6103 42.7367L38.1133 43.3105Z" fill="#E2CFBC"></path><path d="M46.7509 30.6395C45.452 28.8611 43.3388 28.3103 41.554 29.4702C39.7579 30.6374 39.562 32.6889 40.861 34.4671C42.1521 36.2348 44.2618 36.8035 46.0576 35.6363C47.8426 34.4764 48.042 32.4072 46.7509 30.6395ZM40.1916 34.9021C38.6928 32.8502 38.9679 30.344 41.1542 28.9231C43.3296 27.5095 45.9213 28.1526 47.4202 30.2045C48.9189 32.2563 48.6325 34.7698 46.4574 36.1834C44.2709 37.6044 41.6903 36.9539 40.1916 34.9021Z" fill="#E2CFBC"></path><path d="M51.8144 28.2935C50.9912 25.7917 52.3567 23.5189 54.8021 22.803C56.1732 22.4014 57.4099 22.6682 58.4196 23.3226L57.9232 23.8827C57.1468 23.3339 56.0458 23.1345 55.0107 23.4376C52.9924 24.0284 51.8919 25.9427 52.5905 28.0662C53.2813 30.1652 55.3455 31.1798 57.3638 30.5888C58.3989 30.2858 59.1867 29.5335 59.4972 28.6665L60.2515 28.847C59.7685 29.9652 58.944 30.822 57.5726 31.2235C55.1273 31.9393 52.6374 30.7952 51.8144 28.2935Z" fill="#E2CFBC"></path><path d="M70.6361 29.6383L70.587 25.5878L64.8573 25.6494L64.9062 29.6998L64.1341 29.708L64.0312 21.1856L64.8034 21.1774L64.8493 24.985L70.5791 24.9235L70.5332 21.1159L71.3054 21.1074L71.4081 29.63L70.6361 29.6383Z" fill="#E2CFBC"></path><path d="M80.8776 31.594L78.3983 26.8004L77.1433 27.5513L76.3154 30.4243L75.5703 30.2333L77.9401 22.0088L78.6851 22.1999L77.3884 26.7005L82.8945 23.279L83.8487 23.5237L79.0062 26.4929L81.8318 31.8386L80.8776 31.594Z" fill="#E2CFBC"></path><path d="M91.9682 28.0525L87.4346 31.311L91.1057 33.3622L91.9682 28.0525ZM90.6053 36.2903L90.9681 34.0576L86.8541 31.7591L84.9528 33.1321L84.1836 32.7025L91.9697 27.1474L92.7972 27.6098L91.3744 36.72L90.6053 36.2903Z" fill="#E2CFBC"></path><path d="M33.938 92.2749C35.2975 91.3649 35.7572 89.8805 34.6371 88.3916L33.6478 87.0766L28.8434 90.2927L29.8328 91.6077C30.912 93.0422 32.6359 93.1463 33.938 92.2749ZM26.2422 89.7136L33.9269 84.5694L36.0773 87.4276C37.7861 89.699 37.4394 92.3005 35.1235 93.8506C32.8078 95.4008 30.1014 94.843 28.3926 92.5717L26.2422 89.7136Z" fill="#E2CFBC"></path><path d="M35.8789 100.656L41.6463 93.6269L46.9195 97.4767L45.8386 98.7939L42.1519 96.1024L40.9328 97.5883L44.5412 100.223L43.4604 101.54L39.8519 98.9055L38.5462 100.497L42.2328 103.188L41.1519 104.505L35.8789 100.656Z" fill="#E2CFBC"></path><path d="M48.6738 108.259L51.602 101.585L49.0563 100.591L49.7316 99.0518L56.6769 101.763L56.0014 103.302L53.4688 102.313L50.5406 108.988L48.6738 108.259Z" fill="#E2CFBC"></path><path d="M63.7532 104.862L61.872 108.523L64.7947 108.809L63.7532 104.862ZM65.5708 112.074L65.1598 110.52L61.1413 110.126L60.3859 111.565L58.1094 111.342L62.7102 102.857L65.2114 103.103L67.8472 112.298L65.5708 112.074Z" fill="#E2CFBC"></path><path d="M73.2533 111.801L72.0293 102.987L74.0186 102.741L75.2425 111.555L73.2533 111.801Z" fill="#E2CFBC"></path><path d="M81.2917 110.377L78.1953 101.982L80.0901 101.36L82.6064 108.182L86.3693 106.947L86.9497 108.521L81.2917 110.377Z" fill="#E2CFBC"></path><path d="M92.029 106.043L87.1836 98.4196L88.9043 97.4466L93.7497 105.07L92.029 106.043Z" fill="#E2CFBC"></path><path d="M103.693 97.2924L96.1736 96.174L100.509 100.282L99.0876 101.617L92.4395 95.3179L93.9012 93.9453L101.171 94.9972L96.9949 91.0402L98.4167 89.7051L105.065 96.0044L103.693 97.2924Z" fill="#E2CFBC"></path><path d="M104.784 88.9994C102.127 87.7238 101.466 85.0134 102.716 82.6978C103.607 81.0469 105.045 80.4371 106.361 80.3209L106.41 82.1092C105.626 82.1813 104.757 82.6163 104.302 83.4595C103.526 84.8965 104.133 86.5039 105.719 87.2656C107.306 88.0274 109.041 87.5446 109.816 86.1077C110.194 85.407 110.226 84.5848 110.084 84.113L109.077 83.6293L107.949 85.7194L106.388 84.9697L108.426 81.1933L111.649 82.741C112.17 84.0081 112.191 85.4386 111.415 86.8755C110.165 89.1913 107.428 90.2691 104.784 88.9994Z" fill="#E2CFBC"></path><path d="M108.381 72.6358L112.151 74.6116L112.618 71.8751L108.381 72.6358ZM116.117 71.3263L114.449 71.6266L113.807 75.3894L115.289 76.1811L114.926 78.3125L106.201 73.5062L106.601 71.1643L116.481 69.195L116.117 71.3263Z" fill="#E2CFBC"></path><g filter="url(#filter0_d_218_1491)"><path d="M27.7851 81.8193C25.8475 77.1877 24.7832 72.1411 24.7832 66.8599C24.7832 59.8227 26.6732 53.2019 30.0004 47.4245" stroke="#E2CFBC" stroke-width="8" stroke-miterlimit="10"></path></g><g filter="url(#filter1_d_218_1491)"><path d="M96.7129 36.3715C104.898 43.2324 110.301 52.9813 111.126 63.9238" stroke="#E2CFBC" stroke-width="8" stroke-miterlimit="10"></path></g></g><defs><filter id="filter0_d_218_1491" x="16.7832" y="45.4282" width="20.6836" height="45.9348" filterUnits="userSpaceOnUse" color-interpolation-filters="sRGB"><feFlood flood-opacity="0" result="BackgroundImageFix"></feFlood><feColorMatrix in="SourceAlpha" type="matrix" values="0 0 0 0 0 0 0 0 0 0 0 0 0 0 0 0 0 0 127 0" result="hardAlpha"></feColorMatrix><feOffset dy="4"></feOffset><feGaussianBlur stdDeviation="2"></feGaussianBlur><feComposite in2="hardAlpha" operator="out"></feComposite><feColorMatrix type="matrix" values="0 0 0 0 0 0 0 0 0 0 0 0 0 0 0 0 0 0 0.25 0"></feColorMatrix><feBlend mode="normal" in2="BackgroundImageFix" result="effect1_dropShadow_218_1491"></feBlend><feBlend mode="normal" in="SourceGraphic" in2="effect1_dropShadow_218_1491" result="shape"></feBlend></filter><filter id="filter1_d_218_1491" x="90.1426" y="33.3062" width="28.9727" height="38.9185" filterUnits="userSpaceOnUse" color-interpolation-filters="sRGB"><feFlood flood-opacity="0" result="BackgroundImageFix"></feFlood><feColorMatrix in="SourceAlpha" type="matrix" values="0 0 0 0 0 0 0 0 0 0 0 0 0 0 0 0 0 0 127 0" result="hardAlpha"></feColorMatrix><feOffset dy="4"></feOffset><feGaussianBlur stdDeviation="2"></feGaussianBlur><feComposite in2="hardAlpha" operator="out"></feComposite><feColorMatrix type="matrix" values="0 0 0 0 0 0 0 0 0 0 0 0 0 0 0 0 0 0 0.25 0"></feColorMatrix><feBlend mode="normal" in2="BackgroundImageFix" result="effect1_dropShadow_218_1491"></feBlend><feBlend mode="normal" in="SourceGraphic" in2="effect1_dropShadow_218_1491" result="shape"></feBlend></filter></defs></svg> 